<?xml version="1.0" standalone="no"?>
<!DOCTYPE svg PUBLIC "-//W3C//DTD SVG 20010904//EN"
 "http://www.w3.org/TR/2001/REC-SVG-20010904/DTD/svg10.dtd">
<svg version="1.0" xmlns="http://www.w3.org/2000/svg"
 width="869.000000pt" height="869.000000pt" viewBox="0 0 869.000000 869.000000"
 preserveAspectRatio="xMidYMid meet">
<metadata>
Created by potrace 1.14, written by Peter Selinger 2001-2017
</metadata>
<g transform="translate(0.000000,869.000000) scale(0.100000,-0.100000)"
fill="#000000" stroke="none">
<path d="M4270 8494 c-289 -238 -554 -618 -703 -1008 l-34 -88 -134 -42 c-707
-222 -1324 -742 -1674 -1409 -194 -370 -297 -751 -327 -1200 -20 -315 22 -675
117 -1002 28 -94 61 -190 72 -208 4 -6 8 -17 9 -24 2 -11 47 -127 67 -170 9
-21 27 -23 27 -2 0 6 -5 7 -12 3 -6 -4 -8 -3 -5 3 10 15 50 10 54 -7 4 -13 3
-13 -6 0 -5 8 -13 11 -18 7 -4 -5 -2 -11 4 -15 7 -4 17 -19 22 -32 l11 -25 -2
25 c-3 61 -4 60 82 60 64 0 80 -3 80 -15 0 -12 20 -15 120 -15 66 0 120 4 120
9 0 12 112 22 180 14 41 -4 60 -10 60 -19 0 -18 157 -19 195 -2 22 10 25 17
25 60 0 26 5 48 10 48 6 0 10 -29 10 -67 0 -115 43 -599 54 -611 3 -2 31 17
63 43 32 25 72 57 88 70 17 14 33 25 38 25 4 0 21 13 38 29 17 16 61 51 99 76
38 26 74 53 81 61 6 8 18 14 25 14 8 0 14 3 14 8 0 15 70 54 86 48 13 -5 14
-3 6 7 -8 9 -7 16 6 23 9 6 21 11 25 12 5 0 16 9 25 19 26 28 82 66 89 59 4
-3 1 -6 -5 -6 -6 0 -9 -7 -6 -15 4 -8 2 -15 -3 -15 -16 0 -5 -85 27 -207 18
-65 36 -127 40 -138 5 -11 28 -81 50 -155 119 -386 313 -987 334 -1035 8 -16
125 -364 261 -772 208 -627 265 -788 265 -749 0 9 308 1030 382 1266 38 124
76 236 84 250 7 14 32 86 54 160 23 74 45 146 50 160 5 14 23 72 40 130 18 58
60 195 95 305 35 110 72 232 83 270 99 337 96 311 35 306 -35 -2 -47 -8 -55
-27 -6 -13 -14 -24 -18 -24 -4 0 -11 -17 -15 -37 -4 -21 -13 -51 -20 -68 -7
-16 -29 -79 -48 -140 -124 -389 -199 -623 -277 -865 -104 -323 -202 -631 -260
-820 -23 -74 -65 -206 -93 -293 -46 -143 -52 -156 -62 -135 -16 31 -451 1329
-560 1673 -48 149 -101 317 -120 375 -45 144 -72 233 -91 310 -31 127 -32 139
-18 151 8 6 14 20 14 30 0 10 5 21 10 24 6 3 10 21 10 40 0 19 5 37 10 40 6 3
10 22 10 42 0 20 5 53 12 74 13 45 6 58 -19 39 -10 -8 -6 -2 8 12 15 15 90 75
168 135 78 59 158 120 178 136 l36 27 378 0 378 0 28 -33 c15 -19 90 -81 166
-138 174 -130 167 -125 167 -134 0 -4 -8 -4 -17 -1 -12 4 -9 -1 7 -15 25 -22
25 -22 2 -14 -21 6 -22 5 -10 -14 9 -14 14 -17 20 -8 4 7 8 10 8 7 0 -3 3 -43
6 -90 4 -47 10 -93 15 -102 5 -10 8 -34 5 -55 -2 -21 -1 -29 1 -18 3 11 8 22
12 25 7 5 36 107 46 157 9 51 18 55 60 25 54 -37 85 -68 77 -77 -4 -4 0 -6 8
-3 8 3 20 0 26 -6 6 -6 21 -17 32 -25 12 -8 19 -18 17 -22 -3 -4 6 -10 19 -13
13 -3 56 -30 94 -58 39 -29 83 -62 98 -73 15 -11 37 -28 48 -37 17 -15 68 -53
211 -160 6 -4 29 -23 52 -43 23 -20 44 -32 47 -27 5 9 24 143 32 232 3 30 9
88 15 128 5 40 10 119 10 175 1 56 3 94 6 84 8 -29 31 -19 35 16 l3 32 6 -37
c2 -20 1 -34 -3 -32 -11 7 -10 -38 2 -56 8 -12 10 -11 10 8 0 19 5 22 40 22
22 0 40 5 40 10 0 6 18 10 40 10 22 0 40 -4 40 -10 0 -5 18 -10 40 -10 22 0
40 5 40 10 0 6 60 10 160 10 100 0 160 -4 160 -10 0 -12 77 -14 82 -1 2 4 51
11 111 14 101 6 107 5 107 -14 0 -25 26 -25 33 1 3 14 10 18 22 14 9 -4 14
-13 11 -20 -3 -8 -1 -14 4 -14 5 0 10 -7 12 -16 2 -11 9 -5 20 20 10 20 13 36
8 36 -6 0 -10 -6 -10 -14 0 -8 -5 -18 -11 -22 -8 -4 -9 0 -4 15 4 15 3 21 -7
19 -7 -2 -14 7 -16 20 -3 17 1 22 17 22 12 0 21 6 21 14 0 8 4 17 9 21 6 3 7
-9 4 -30 -3 -21 -2 -35 5 -35 14 0 64 128 56 142 -4 6 -3 8 3 5 13 -8 27 39
17 55 -4 6 -3 8 3 5 21 -13 102 274 139 491 86 509 38 1049 -133 1507 -238
636 -678 1163 -1262 1514 -175 106 -436 220 -631 276 -52 15 -99 31 -103 35
-5 4 -31 63 -58 131 -125 310 -302 587 -518 812 -73 76 -211 198 -222 196 -2
0 -29 -20 -59 -45z m-490 -1099 c349 -48 815 -44 1216 10 l51 7 26 -68 c201
-531 250 -1131 146 -1784 -48 -308 -124 -643 -214 -951 -51 -175 -173 -538
-208 -621 l-16 -38 -459 0 -458 0 -51 138 c-187 504 -334 1109 -400 1642 -25
208 -25 710 0 900 32 235 88 475 152 655 46 130 51 137 83 131 15 -4 74 -13
132 -21z m-383 -2068 c-1 -18 2 -38 7 -45 4 -7 11 -33 16 -60 9 -49 36 -179
38 -187 1 -3 2 -19 2 -36 0 -17 4 -28 10 -24 6 3 10 -1 10 -10 0 -9 -4 -13
-10 -10 -6 4 -10 -7 -10 -24 0 -29 20 -46 20 -18 1 23 20 -21 22 -50 1 -15 5
-30 8 -33 8 -7 43 -139 48 -182 2 -21 9 -38 16 -38 6 0 4 -5 -4 -11 -11 -8
-12 -12 -2 -16 6 -2 12 -14 12 -24 0 -12 4 -17 11 -13 6 3 10 -1 9 -12 -4 -38
0 -65 10 -59 14 8 13 3 -7 -35 -15 -31 -15 -38 -1 -77 9 -24 12 -43 7 -43 -5
0 -9 7 -9 16 0 8 -4 13 -8 10 -5 -3 -9 34 -8 81 0 60 -3 88 -12 91 -7 2 -12
17 -12 33 0 16 -4 29 -9 29 -5 0 -8 20 -7 44 1 25 -1 43 -3 40 -3 -3 -11 6
-18 18 -13 21 -13 21 -7 -12 8 -38 8 -45 6 -107 -1 -24 -7 -43 -13 -43 -7 0
-9 21 -6 63 2 34 2 77 0 95 -5 30 -8 32 -47 33 -23 1 -31 4 -18 6 20 4 22 10
22 60 0 44 -4 59 -21 74 -16 14 -20 28 -18 61 4 62 0 88 -11 88 -5 0 -10 -9
-10 -20 0 -11 -4 -20 -10 -20 -5 0 -10 9 -10 20 0 22 -35 29 -42 8 -9 -25 -38
20 -38 56 0 20 -4 36 -10 36 -5 0 -10 -13 -10 -29 0 -16 -5 -31 -12 -33 -21
-7 38 -58 67 -58 23 0 25 -4 25 -40 0 -22 -4 -40 -10 -40 -5 0 -10 6 -10 14 0
8 -10 16 -22 18 -15 2 -24 11 -26 26 -3 18 -10 22 -37 22 -18 0 -35 6 -38 13
-2 7 -8 8 -13 3 -5 -5 -4 -11 4 -13 18 -7 16 -83 -3 -83 -11 0 -15 -12 -16
-42 0 -24 -3 -37 -6 -30 -8 20 -23 13 -23 -11 0 -13 -9 -32 -20 -42 -19 -18
-20 -17 -20 3 0 12 -2 22 -4 22 -2 0 -12 3 -21 7 -15 5 -16 3 -6 -15 14 -27
14 -35 -1 -26 -8 5 -9 2 -5 -10 7 -18 -30 -63 -41 -50 -4 3 -1 9 6 11 6 3 10
9 6 14 -3 5 2 9 11 9 12 0 14 4 5 19 -13 25 -13 41 0 21 8 -13 10 -13 10 2 0
9 -5 20 -10 23 -7 4 -7 13 0 26 6 11 16 16 22 13 7 -5 9 0 6 14 -4 15 -2 22 8
22 8 0 14 -9 14 -20 0 -24 6 -25 26 -6 21 21 17 46 -6 46 -14 0 -20 7 -20 23
0 17 2 19 9 8 7 -11 10 -7 13 15 2 20 8 29 20 28 13 -1 15 2 6 16 -13 21 9 50
37 50 9 0 16 7 14 18 -2 29 1 42 10 42 5 0 8 -8 6 -17 -1 -10 0 -12 2 -4 4 10
7 11 12 2 4 -7 8 2 8 19 0 17 -4 26 -7 19 -4 -6 -7 1 -7 16 0 15 3 22 7 16 5
-9 10 -9 17 1 19 23 54 90 50 94 -2 3 -12 -10 -20 -28 -9 -18 -17 -27 -17 -20
0 8 9 26 20 42 11 15 18 29 17 31 -1 2 4 -2 11 -10 15 -18 16 -7 1 21 -8 15
-8 19 0 14 6 -4 11 -2 11 4 0 13 43 80 51 80 4 0 6 -15 6 -33z m1879 -44 c-11
-11 -17 4 -9 23 7 18 8 18 11 1 2 -10 1 -21 -2 -24z m54 -62 c8 -15 8 -21 1
-17 -6 4 -11 0 -11 -8 0 -9 -4 -16 -10 -16 -5 0 -10 -4 -10 -10 0 -14 33 -13
48 2 12 12 17 2 13 -29 -2 -17 29 -64 39 -58 9 5 27 -34 25 -55 -1 -8 -3 -27
-3 -42 -3 -40 -22 -34 -22 6 0 45 -37 129 -53 119 -45 -27 -67 -59 -67 -101 0
-33 -6 -49 -26 -69 -14 -14 -28 -23 -31 -20 -3 4 1 13 10 21 16 16 33 93 23
103 -3 4 -6 -7 -7 -23 l-1 -29 -9 25 c-7 19 -8 15 -4 -17 5 -38 3 -43 -15 -43
-17 0 -20 6 -19 48 0 35 3 42 9 27 8 -19 9 -18 11 5 1 14 1 43 0 65 -2 30 1
36 8 25 8 -12 11 -8 11 18 0 32 14 44 23 20 8 -22 58 44 51 67 -8 24 -1 19 16
-14z m39 -147 c6 -15 9 -29 6 -32 -3 -4 -9 5 -12 18 l-7 25 -7 -25 c-6 -23 -7
-23 -8 8 -1 39 11 42 28 6z m74 -91 c-3 -21 -2 -24 5 -14 8 11 10 5 8 -20 -5
-52 -6 -55 -16 -39 -6 9 -5 17 3 22 9 5 9 10 -1 20 -14 14 -17 58 -3 58 4 0 6
-12 4 -27z m-243 -44 c0 -10 -4 -19 -10 -19 -5 0 -10 12 -10 26 0 14 4 23 10
19 6 -3 10 -15 10 -26z m280 -41 c0 -19 -2 -20 -10 -8 -13 19 -13 30 0 30 6 0
10 -10 10 -22z m-2080 -68 c0 -16 -4 -30 -10 -30 -5 0 -10 14 -10 30 0 17 5
30 10 30 6 0 10 -13 10 -30z m1780 -11 c0 -11 -4 -17 -10 -14 -5 3 -10 15 -10
26 0 11 5 17 10 14 6 -3 10 -15 10 -26z m331 -12 c-10 -9 -11 -8 -5 6 3 10 9
15 12 12 3 -3 0 -11 -7 -18z m-351 -22 c0 -5 -5 -3 -10 5 -5 8 -10 20 -10 25
0 6 5 3 10 -5 5 -8 10 -19 10 -25z m60 5 c0 -5 -4 -10 -10 -10 -5 0 -10 5 -10
10 0 6 5 10 10 10 6 0 10 -4 10 -10z m240 0 c0 -5 -4 -10 -10 -10 -5 0 -10 5
-10 10 0 6 5 10 10 10 6 0 10 -4 10 -10z m77 -52 c-3 -11 0 -15 9 -11 10 4 14
-3 14 -22 0 -20 4 -26 14 -22 10 4 13 1 9 -9 -6 -17 -20 -18 -26 -1 -5 13 -47
-28 -47 -45 0 -5 -7 -3 -15 6 -20 20 -19 35 6 57 11 10 18 23 14 28 -3 6 -1
11 4 11 6 0 11 10 11 23 -1 21 -1 22 -15 3 -18 -24 -19 -16 -3 19 l12 27 9
-24 c4 -12 6 -30 4 -40z m-376 -2 c5 3 9 0 9 -5 0 -6 -4 -11 -9 -11 -14 0 -27
-72 -20 -120 l6 -45 3 50 c3 57 17 123 19 89 0 -12 12 -30 26 -40 19 -14 25
-28 25 -56 0 -31 4 -38 20 -38 17 0 20 -7 20 -40 0 -33 -3 -40 -20 -40 -17 0
-20 -7 -20 -40 0 -33 3 -40 20 -40 17 0 20 -7 20 -40 0 -33 3 -40 20 -40 17 0
20 -7 20 -40 l0 -40 -40 0 -40 0 0 -80 c0 -73 2 -80 20 -80 13 0 20 -7 20 -20
0 -18 -7 -20 -80 -20 -73 0 -80 -2 -80 -20 0 -13 7 -20 20 -20 18 0 20 -7 20
-79 l0 -79 -57 -4 c-31 -1 -76 -1 -100 1 -43 3 -43 3 -43 42 0 21 -5 39 -11
39 -5 0 -8 4 -5 9 4 5 8 31 11 58 3 41 2 46 -9 31 -7 -10 -16 -18 -19 -18 -9
0 -2 89 8 97 4 5 5 0 2 -10 -4 -11 -3 -16 3 -12 6 3 13 24 16 46 6 35 14 44
37 40 4 0 7 14 7 31 0 50 11 83 21 66 5 -7 9 -20 9 -28 0 -13 -1 -13 -10 0 -8
13 -10 13 -10 -2 0 -9 3 -24 6 -33 5 -13 8 -14 15 -3 6 9 9 2 9 -20 0 -30 2
-31 20 -20 21 13 28 48 10 48 -5 0 -10 14 -10 30 0 19 -5 30 -14 30 -8 0 -18
9 -21 20 -4 11 -11 17 -17 14 -5 -3 -3 7 6 24 8 16 12 33 8 37 -4 4 3 1 16 -6
25 -16 30 -49 6 -49 -8 0 -12 -4 -9 -10 3 -5 15 -10 26 -10 14 0 19 7 19 30 0
17 -4 30 -10 30 -6 0 -10 27 -10 63 0 42 3 57 10 47 6 -10 9 -2 8 28 0 23 5
48 11 56 7 8 11 18 10 22 -4 25 2 54 11 49 6 -3 10 3 10 14 0 12 4 21 8 21 10
0 32 59 33 91 0 13 3 18 6 11 2 -6 9 -10 14 -6z m99 -26 c0 -5 -4 -10 -10 -10
-5 0 -10 5 -10 10 0 6 5 10 10 10 6 0 10 -4 10 -10z m-2169 -70 c5 0 9 -18 9
-40 l0 -40 40 0 40 0 0 40 0 40 60 0 60 0 0 -80 c0 -73 -2 -80 -20 -80 -17 0
-20 -7 -20 -40 0 -33 -3 -40 -20 -40 -17 0 -20 -7 -20 -40 0 -33 -3 -40 -20
-40 -17 0 -20 -7 -20 -40 l0 -40 43 -2 42 -1 -42 -4 -43 -4 0 -55 0 -54 -40 0
c-33 0 -40 3 -40 20 0 11 -4 20 -10 20 -5 0 -10 -18 -10 -40 0 -22 5 -40 10
-40 6 0 10 -9 10 -20 0 -17 7 -20 40 -20 33 0 40 -3 40 -20 0 -17 7 -20 40
-20 l40 0 0 -40 0 -40 40 0 c33 0 40 -3 40 -20 0 -17 7 -20 40 -20 33 0 40 -3
40 -20 0 -17 7 -20 40 -20 l40 0 0 -90 c0 -53 4 -90 10 -90 6 0 10 -9 10 -20
0 -11 -4 -20 -9 -20 -4 0 -8 -20 -8 -44 0 -35 2 -42 12 -33 9 9 10 16 3 25 -6
7 -8 16 -4 19 4 4 11 1 16 -7 8 -13 13 -11 32 8 19 19 20 24 9 31 -12 8 -12
12 2 25 8 9 22 16 30 16 9 0 17 5 19 12 3 8 13 8 34 3 l29 -9 -29 -4 c-37 -5
-56 -24 -56 -56 0 -20 -4 -24 -17 -19 -12 5 -15 2 -10 -10 4 -12 2 -14 -10
-10 -13 5 -15 2 -10 -11 4 -11 3 -15 -4 -11 -12 8 -51 -24 -44 -36 9 -13 -10
-18 -25 -7 -12 8 -12 9 3 4 10 -3 16 -2 12 3 -3 5 -21 8 -40 7 l-35 -3 -1 86
c-1 47 0 121 1 164 l2 77 -121 0 -121 0 0 -80 0 -80 -80 0 -80 0 0 -80 0 -80
100 0 c93 0 100 -1 100 -20 0 -13 -7 -20 -20 -20 -11 0 -20 -4 -20 -10 0 -5 4
-10 9 -10 5 0 11 -26 13 -59 l3 -58 -43 2 c-23 1 -37 -2 -31 -6 9 -5 8 -12 -5
-24 -16 -16 -18 -16 -35 4 -10 12 -24 21 -30 21 -30 0 -41 29 -41 104 l0 76
-79 0 c-78 0 -79 0 -84 -28 -3 -15 -4 -46 -3 -67 3 -35 3 -36 -4 -10 -7 29 -7
29 -10 -10 -2 -32 -5 -24 -14 40 -7 44 -14 76 -17 70 -3 -5 -4 -3 -1 5 3 8 7
31 9 50 2 28 1 31 -6 15 -13 -27 -13 132 -1 160 6 13 8 -1 6 -45 -2 -36 -1
-50 1 -32 4 32 17 42 26 20 6 -15 9 14 11 89 1 28 -2 49 -6 47 -4 -2 -10 1
-14 8 -6 9 -10 5 -15 -12 -4 -14 -5 0 -2 30 4 30 12 60 18 65 7 6 15 27 18 49
5 33 4 36 -7 21 -7 -10 -11 -28 -8 -41 3 -15 0 -24 -8 -24 -13 0 -10 31 10
109 6 24 8 58 5 75 -4 24 -3 27 4 11 9 -18 10 -17 10 8 1 31 26 64 36 47 3 -5
13 -10 22 -10 9 0 13 3 10 7 -8 7 11 33 25 33 5 0 8 -11 6 -24 -2 -18 7 -36
31 -60 19 -20 39 -36 43 -36 4 0 8 18 8 40 0 22 -4 40 -10 40 -5 0 -10 10 -10
23 l1 22 18 -22 19 -23 11 32 c16 45 14 48 -19 48 -28 0 -30 2 -30 40 0 22 -4
40 -10 40 -5 0 -10 14 -10 30 0 17 5 30 10 30 6 0 10 9 10 20 0 11 -4 20 -10
20 -5 0 -10 -9 -10 -20 0 -11 -4 -20 -10 -20 -5 0 -10 -22 -10 -50 0 -27 -4
-50 -10 -50 -5 0 -10 9 -10 19 0 10 -7 21 -15 25 -20 7 -37 -27 -29 -59 4 -15
2 -25 -5 -25 -6 0 -11 -9 -11 -20 0 -11 -4 -20 -8 -20 -5 0 -9 14 -9 30 0 20
3 26 9 18 5 -8 8 0 8 21 0 19 6 42 14 50 8 9 17 30 20 46 l6 30 -11 -28 c-10
-26 -29 -29 -29 -5 0 6 3 8 7 5 8 -9 33 59 33 91 0 12 6 22 13 22 9 0 9 2 0 8
-8 5 -9 13 -3 22 12 19 14 8 10 -62 -1 -30 2 -48 9 -48 6 0 11 9 11 20 0 11 4
20 9 20 12 0 24 72 13 79 -5 3 -7 23 -4 45 3 28 7 35 14 25 7 -10 8 -8 3 6
-11 30 -17 74 -8 53 7 -15 11 -15 33 -3 14 8 21 15 15 15 -5 0 -3 5 5 10 11 7
16 5 18 -10 2 -11 8 -20 13 -20z m2016 18 c-3 -8 -6 -5 -6 6 -1 11 2 17 5 13
3 -3 4 -12 1 -19z m153 13 c0 -6 -4 -13 -10 -16 -5 -3 -10 1 -10 9 0 9 5 16
10 16 6 0 10 -4 10 -9z m180 -21 c0 -5 -4 -10 -10 -10 -5 0 -10 5 -10 10 0 6
5 10 10 10 6 0 10 -4 10 -10z m154 -2 c-3 -7 -21 -26 -40 -41 l-34 -29 0 31
c0 28 3 31 29 31 17 0 33 5 36 10 9 14 15 12 9 -2z m-2177 -70 c-2 -13 -4 -3
-4 22 0 25 2 35 4 23 2 -13 2 -33 0 -45z m2180 20 c-3 -8 -6 -5 -6 6 -1 11 2
17 5 13 3 -3 4 -12 1 -19z m0 -40 c-3 -8 -6 -5 -6 6 -1 11 2 17 5 13 3 -3 4
-12 1 -19z m-2610 -28 c0 -41 -10 -46 -20 -10 -3 11 -1 20 4 20 5 0 9 7 9 15
0 8 2 15 4 15 2 0 3 -18 3 -40z m2637 25 c-4 -8 -1 -15 5 -15 6 0 11 -5 11
-12 0 -8 -6 -7 -16 4 -9 9 -13 21 -10 27 10 16 16 13 10 -4z m-17 -47 c-3 -8
-6 -5 -6 6 -1 11 2 17 5 13 3 -3 4 -12 1 -19z m-2187 -48 l0 -60 -55 0 -55 0
0 40 c0 29 4 40 15 40 8 0 15 9 15 20 0 17 7 20 40 20 l40 0 0 -60z m120 -130
c0 -107 -4 -170 -10 -170 -6 0 -10 37 -10 90 0 53 -4 90 -10 90 -5 0 -10 9
-10 20 0 11 5 20 10 20 6 0 10 27 10 60 0 33 4 60 10 60 6 0 10 -63 10 -170z
m2095 160 c3 -5 1 -10 -4 -10 -6 0 -11 5 -11 10 0 6 2 10 4 10 3 0 8 -4 11
-10z m28 -35 c2 -16 6 -37 10 -45 3 -8 8 -28 11 -45 5 -22 4 -26 -4 -15 -5 8
-10 23 -10 33 0 9 -7 17 -16 17 -11 0 -14 5 -10 16 3 9 6 30 6 46 0 38 7 34
13 -7z m-2042 -27 c-5 -13 -5 -32 -1 -43 7 -17 8 -16 12 10 3 20 5 13 7 -22 0
-29 -1 -53 -3 -53 -2 0 -11 21 -20 46 -11 33 -13 52 -5 65 14 26 20 24 10 -3z
m2019 -88 c0 -11 -4 -20 -10 -20 -5 0 -10 9 -10 20 0 11 5 20 10 20 6 0 10 -9
10 -20z m-1960 -70 c0 -13 -1 -13 -10 0 -5 8 -10 22 -10 30 0 13 1 13 10 0 5
-8 10 -22 10 -30z m2017 -47 c-2 -16 -4 -5 -4 22 0 28 2 40 4 28 2 -13 2 -35
0 -50z m-1998 -13 c0 -10 -3 -8 -9 5 -12 27 -12 43 0 25 5 -8 9 -22 9 -30z
m-14 -49 c3 -16 0 -20 -7 -13 -6 6 -12 28 -14 49 -2 34 -2 36 8 13 6 -14 12
-36 13 -49z m2045 38 c0 -6 -4 -7 -10 -4 -5 3 -10 11 -10 16 0 6 5 7 10 4 6
-3 10 -11 10 -16z m-130 -29 c0 -5 -4 -10 -10 -10 -5 0 -10 5 -10 10 0 6 5 10
10 10 6 0 10 -4 10 -10z m120 -6 c0 -2 -9 -4 -20 -4 -11 0 -20 4 -20 9 0 5 9
7 20 4 11 -3 20 -7 20 -9z m-2140 -20 c0 -17 -22 -14 -28 4 -2 7 3 12 12 12 9
0 16 -7 16 -16z m137 -6 c-3 -8 -6 -5 -6 6 -1 11 2 17 5 13 3 -3 4 -12 1 -19z
m42 -71 c6 -8 8 -16 5 -19 -11 -11 -13 -69 -3 -62 6 3 9 15 6 25 -3 11 -1 19
4 19 5 0 9 -6 9 -14 0 -8 3 -22 7 -32 4 -12 3 -15 -5 -10 -8 5 -10 -3 -6 -26
l5 -33 -15 30 -15 30 6 -44 c4 -31 2 -46 -8 -53 -11 -7 -11 -11 -1 -15 19 -8
14 -23 -8 -23 -20 0 -29 35 -11 42 10 3 18 118 9 134 -3 5 -8 21 -12 37 -7 30
12 38 33 14z m1998 -34 c-3 -10 -5 -4 -5 12 0 17 2 24 5 18 2 -7 2 -21 0 -30z
m-871 -59 c-20 -14 -20 -24 -1 -24 8 0 15 6 15 14 0 8 5 18 10 21 19 12 10
-25 -12 -45 -12 -11 -16 -20 -10 -20 7 0 12 -9 12 -20 0 -11 5 -20 10 -20 6 0
10 -18 10 -39 0 -22 6 -42 13 -45 10 -5 10 -7 0 -12 -7 -3 -13 -15 -13 -26 0
-18 -4 -19 -35 -14 -28 6 -34 4 -29 -8 5 -12 -1 -14 -27 -11 -36 4 -62 25 -41
32 6 3 12 14 13 26 0 21 1 21 8 2 5 -11 7 -28 5 -37 -2 -15 0 -16 16 -6 18 11
18 14 4 30 -14 15 -14 23 -3 70 8 29 20 59 27 67 8 8 11 24 8 37 -3 12 -2 26
4 29 5 3 10 18 11 33 l0 27 10 -25 c8 -19 6 -27 -5 -36z m-1220 -24 c4 -13 6
-13 15 0 9 12 10 11 5 -4 -4 -11 -1 -23 6 -28 10 -8 10 -11 1 -15 -7 -2 -13
-18 -13 -34 0 -28 -1 -29 -50 -29 l-50 0 0 40 c0 39 1 40 35 40 34 0 35 1 36
43 1 23 3 33 6 22 2 -11 6 -27 9 -35z m2094 8 c0 -38 -5 -34 -13 10 -4 21 -3
31 3 27 6 -3 10 -20 10 -37z m-1937 -49 l14 -35 -28 4 c-31 5 -36 20 -18 54
13 23 13 23 32 -23z m1687 -114 c0 -34 6 -47 35 -75 l35 -34 0 37 c0 20 5 37
10 37 6 0 10 -18 10 -40 0 -33 3 -40 20 -40 17 0 20 7 20 40 0 22 -4 40 -10
40 -5 0 -10 18 -10 40 0 33 3 40 20 40 19 0 20 -7 20 -160 0 -136 2 -160 15
-160 11 0 15 -11 15 -40 0 -29 -4 -40 -15 -40 -8 0 -15 -9 -15 -20 0 -17 -7
-20 -40 -20 -33 0 -40 -3 -40 -20 0 -13 7 -20 20 -20 13 0 20 -7 20 -20 0 -13
-7 -20 -20 -20 -13 0 -20 7 -20 20 0 17 -7 20 -40 20 -29 0 -40 -4 -40 -15 0
-8 -5 -15 -11 -15 -6 0 -9 7 -5 15 3 9 0 15 -9 15 -8 0 -15 -4 -15 -10 0 -5
-6 -10 -14 -10 -8 0 -17 -8 -20 -17 -3 -10 -4 -6 -2 10 2 18 -1 27 -10 27 -8
0 -14 11 -14 26 0 28 -21 54 -43 54 -9 0 -17 6 -20 13 -2 6 -8 9 -12 5 -5 -5
1 -16 13 -26 l21 -18 -21 -13 c-18 -11 -20 -11 -15 3 4 10 -1 20 -13 26 -30
16 -48 11 -20 -6 16 -10 18 -13 5 -8 -11 4 -29 7 -40 8 -21 1 -67 25 -49 26 5
0 15 -5 22 -12 9 -9 15 -9 25 1 6 8 8 12 2 9 -5 -3 -19 3 -29 13 -11 11 -14
19 -8 19 6 0 14 -4 17 -10 3 -5 19 -10 36 -10 22 0 29 5 29 20 0 13 -7 20 -19
20 -11 0 -23 5 -26 10 -3 6 -14 9 -23 9 -16 -1 -16 -2 0 -6 9 -2 19 -11 22
-19 7 -19 -1 -18 -34 6 -18 13 -31 16 -35 10 -3 -5 -1 -10 6 -10 7 0 10 -2 7
-5 -3 -3 -12 -3 -21 1 -15 5 -15 7 -1 21 22 22 110 11 134 -17 9 -11 24 -20
33 -20 8 0 18 -6 21 -12 5 -10 7 -10 12 0 10 20 44 15 44 -8 0 -13 7 -20 20
-20 17 0 20 7 20 40 0 31 4 40 17 40 12 0 6 11 -22 40 -32 33 -46 40 -77 40
-38 0 -38 0 -38 40 0 33 -3 40 -20 40 -19 0 -20 7 -20 90 0 88 1 91 26 100 14
6 41 10 60 10 28 0 34 4 34 22 0 20 5 17 45 -22 39 -38 45 -50 45 -85z m250
115 c0 -5 -2 -10 -4 -10 -3 0 -8 5 -11 10 -3 6 -1 10 4 10 6 0 11 -4 11 -10z
m24 -65 c3 -38 1 -64 -3 -57 -8 13 -14 138 -6 130 2 -2 6 -35 9 -73z m-29 -41
c-4 -22 -3 -34 3 -30 19 12 31 -187 16 -263 l-7 -32 -13 27 c-16 31 -19 174
-4 174 6 0 8 -10 5 -22 -3 -13 -1 -50 4 -83 l9 -60 1 91 c1 100 -7 157 -20
148 -5 -3 -9 1 -9 9 0 23 12 77 17 77 3 0 2 -16 -2 -36z m-2912 -39 c5 -28 4
-34 -3 -20 -8 19 -14 73 -6 64 2 -2 6 -22 9 -44z m2257 35 c0 -5 -4 -10 -10
-10 -5 0 -10 5 -10 10 0 6 5 10 10 10 6 0 10 -4 10 -10z m-1263 -35 c-4 -44
-14 -55 -11 -12 2 41 3 47 9 47 2 0 3 -16 2 -35z m-157 5 c0 -5 -4 -10 -10
-10 -5 0 -10 5 -10 10 0 6 5 10 10 10 6 0 10 -4 10 -10z m1396 -10 c17 0 24
-6 24 -20 0 -17 -7 -20 -40 -20 -33 0 -40 -3 -40 -20 0 -11 -4 -20 -10 -20 -5
0 -10 18 -10 39 0 39 12 53 38 45 8 -2 25 -4 38 -4z m-1293 -16 c-6 -17 -17
-18 -31 -1 -8 9 -4 12 13 13 16 1 22 -2 18 -12z m1177 -24 c0 -40 -13 -53 -24
-25 -3 8 -12 15 -21 15 -12 0 -11 5 7 24 32 34 38 32 38 -14z m837 -132 c-2
-35 -3 -9 -3 57 0 66 1 94 3 63 2 -32 2 -86 0 -120z m-37 122 c0 -5 -4 -10
-10 -10 -5 0 -10 5 -10 10 0 6 5 10 10 10 6 0 10 -4 10 -10z m-860 -18 c0 -15
-11 -21 -27 -15 -12 5 -12 7 -1 14 17 11 28 11 28 1z m99 -21 c12 -8 11 -12
-4 -27 -17 -17 -17 -17 -11 4 9 26 1 28 -21 7 -8 -9 -18 -13 -22 -10 -3 4 3
13 13 21 23 16 26 17 45 5z m-1279 -15 c0 -2 -8 -10 -17 -17 -16 -13 -17 -12
-4 4 13 16 21 21 21 13z m-46 -22 c3 -8 2 -12 -4 -9 -6 3 -10 10 -10 16 0 14
7 11 14 -7z m1399 -45 c16 16 26 14 23 -6 -2 -12 -12 -18 -29 -18 -14 -1 -23
3 -20 8 3 4 -3 7 -12 5 -11 -2 -19 4 -20 14 -3 16 -1 16 21 1 19 -12 28 -13
37 -4z m24 -54 c0 -8 -4 -12 -9 -9 -5 3 -6 10 -3 15 9 13 12 11 12 -6z m-1697
-26 c0 -7 10 -9 24 -5 14 3 28 1 32 -6 4 -7 3 -8 -4 -4 -7 4 -12 2 -12 -4 0
-6 -4 -8 -10 -5 -5 3 -10 2 -10 -3 0 -16 13 -22 27 -11 7 6 13 7 13 3 0 -5 -9
-15 -20 -22 -16 -10 -20 -10 -18 0 4 16 -54 17 -59 2 -2 -6 7 -15 19 -21 23
-10 23 -10 -4 -10 -15 0 -25 3 -22 8 3 5 -2 9 -10 9 -8 0 -18 -5 -22 -11 -3
-6 -19 -9 -35 -7 -29 5 -40 -6 -16 -15 9 -4 8 -8 -3 -16 -13 -9 -12 -11 5 -12
18 -1 18 -2 2 -6 -14 -4 -15 -8 -7 -18 8 -10 8 -15 -1 -21 -7 -4 -9 -3 -6 3 4
6 -4 14 -18 17 -23 6 -25 11 -25 66 0 60 0 60 30 60 17 0 30 5 30 10 0 6 9 10
20 10 11 0 20 5 20 10 0 6 18 10 40 10 23 0 40 -5 40 -11z m2397 -21 c-3 -7
-5 -2 -5 12 0 14 2 19 5 13 2 -7 2 -19 0 -25z m1261 -63 c-6 -14 -13 -24 -14
-22 -6 6 9 47 17 47 5 0 3 -11 -3 -25z m-5398 -7 c0 -16 -3 -19 -11 -11 -6 6
-8 16 -5 22 11 17 16 13 16 -11z m4087 0 c-3 -8 -6 -5 -6 6 -1 11 2 17 5 13 3
-3 4 -12 1 -19z m280 -25 c-3 -10 -5 -2 -5 17 0 19 2 27 5 18 2 -10 2 -26 0
-35z m-4307 7 c0 -11 -4 -20 -10 -20 -5 0 -10 9 -10 20 0 11 5 20 10 20 6 0
10 -9 10 -20z m1595 0 c-3 -5 -10 -10 -16 -10 -5 0 -9 5 -9 10 0 6 7 10 16 10
8 0 12 -4 9 -10z m2442 -57 c-3 -10 -5 -2 -5 17 0 19 2 27 5 18 2 -10 2 -26 0
-35z m-2437 33 c0 -2 -8 -10 -17 -17 -16 -13 -17 -12 -4 4 13 16 21 21 21 13z
m2018 -8 c-2 -7 6 -12 16 -13 10 0 20 -8 22 -18 1 -9 -2 -15 -7 -11 -5 3 -6
10 -3 16 5 7 1 9 -9 5 -16 -6 -41 15 -30 26 10 10 13 8 11 -5z m-2798 -18 c0
-5 -18 -10 -40 -10 -22 0 -40 5 -40 10 0 6 18 10 40 10 22 0 40 -4 40 -10z
m291 -50 c-7 -36 -9 -39 -10 -15 -1 33 11 85 16 70 1 -6 -1 -30 -6 -55z m189
30 c0 -16 5 -30 10 -30 6 0 10 5 10 10 0 6 5 10 10 10 19 0 10 -49 -10 -60
-21 -11 -28 -54 -10 -65 6 -3 10 -12 10 -18 0 -7 -7 -4 -14 6 -7 9 -21 17 -30
17 -13 0 -16 13 -16 80 0 73 2 80 20 80 16 0 20 -7 20 -30z m2680 21 c0 -6 -4
-13 -10 -16 -5 -3 -10 1 -10 9 0 9 5 16 10 16 6 0 10 -4 10 -9z m-2486 -36 c2
-7 -2 -19 -10 -25 -8 -7 -14 -9 -15 -4 0 5 -2 19 -5 31 -3 16 0 21 10 17 8 -3
17 -12 20 -19z m2346 -5 c0 -5 -9 -10 -20 -10 -11 0 -20 5 -20 10 0 6 9 10 20
10 11 0 20 -4 20 -10z m187 -12 c-3 -8 -6 -5 -6 6 -1 11 2 17 5 13 3 -3 4 -12
1 -19z m-2256 -5 c13 -16 12 -17 -3 -4 -10 7 -18 15 -18 17 0 8 8 3 21 -13z
m2006 -2 c-3 -13 1 -21 12 -24 9 -3 2 -4 -15 -3 -30 1 -31 2 -16 24 18 27 26
28 19 3z m-2088 6 c-2 -1 -13 -9 -24 -17 -19 -14 -19 -14 -6 3 7 9 18 17 24
17 6 0 8 -1 6 -3z m-469 -27 c0 -5 -2 -10 -4 -10 -3 0 -8 5 -11 10 -3 6 -1 10
4 10 6 0 11 -4 11 -10z m184 -1 c-2 -4 1 -11 7 -15 8 -5 7 -9 -2 -15 -13 -8
-55 8 -45 18 3 3 13 0 23 -8 13 -11 15 -11 9 -1 -4 7 -18 17 -30 22 -18 7 -16
8 11 8 18 -1 30 -5 27 -9z m2452 -6 c0 -12 -8 -18 -23 -18 -29 0 -29 9 0 23
12 6 22 11 22 11 1 1 1 -7 1 -16z m-2514 -25 c-7 -7 -12 -18 -12 -26 0 -10 3
-10 16 2 8 9 20 16 26 16 6 0 1 -9 -12 -20 -25 -22 -40 -18 -40 9 0 20 8 31
24 31 6 0 5 -5 -2 -12z m2705 -20 c-3 -8 -6 -5 -6 6 -1 11 2 17 5 13 3 -3 4
-12 1 -19z m-197 2 c0 -5 -2 -10 -4 -10 -3 0 -8 5 -11 10 -3 6 -1 10 4 10 6 0
11 -4 11 -10z m-2070 -10 c0 -5 -4 -10 -10 -10 -5 0 -10 5 -10 10 0 6 5 10 10
10 6 0 10 -4 10 -10z m2095 -20 c3 -5 1 -10 -4 -10 -6 0 -11 5 -11 10 0 6 2
10 4 10 3 0 8 -4 11 -10z m-2605 -10 c0 -5 -5 -10 -11 -10 -5 0 -7 5 -4 10 3
6 8 10 11 10 2 0 4 -4 4 -10z m2665 -10 c3 -6 -1 -7 -9 -4 -18 7 -21 14 -7 14
6 0 13 -4 16 -10z m-2651 -15 c-21 -16 -54 -20 -54 -6 0 5 8 7 19 4 10 -3 22
0 25 6 4 6 12 11 19 11 6 0 2 -7 -9 -15z m2640 -14 c-2 -3 -12 3 -22 13 -16
17 -16 18 5 5 12 -7 20 -15 17 -18z m-2744 -35 c0 -2 -7 -7 -16 -10 -8 -3 -12
-2 -9 4 6 10 25 14 25 6z"/>
<path d="M4122 6805 c-112 -39 -180 -81 -268 -170 -63 -64 -90 -100 -123 -166
-56 -116 -71 -181 -71 -319 0 -138 15 -203 71 -319 55 -112 171 -232 275 -284
129 -65 179 -77 319 -77 140 0 190 12 319 77 104 52 220 172 275 284 56 116
71 181 71 319 0 138 -15 203 -71 319 -33 66 -60 102 -123 166 -89 89 -157 132
-270 170 -64 22 -92 25 -203 25 -110 0 -138 -4 -201 -25z m356 -144 c174 -59
302 -194 347 -366 19 -76 19 -214 0 -290 -39 -150 -139 -270 -282 -338 l-88
-42 -130 0 -130 0 -88 42 c-191 91 -297 264 -297 483 0 242 134 433 360 510
77 27 230 27 308 1z"/>
<path d="M3326 5198 c-18 -25 -21 -42 -7 -33 5 3 11 0 14 -7 2 -7 2 -2 0 11
-2 13 2 28 9 32 7 4 10 11 6 14 -3 4 -13 -4 -22 -17z"/>
<path d="M3380 5140 c0 -11 5 -20 10 -20 6 0 10 9 10 20 0 11 -4 20 -10 20 -5
0 -10 -9 -10 -20z"/>
<path d="M3290 5135 c-11 -13 -10 -14 4 -9 9 3 16 10 16 15 0 13 -6 11 -20 -6z"/>
<path d="M3340 5110 c0 -5 5 -10 10 -10 6 0 10 5 10 10 0 6 -4 10 -10 10 -5 0
-10 -4 -10 -10z"/>
<path d="M3432 4990 c0 -14 4 -36 8 -50 6 -20 8 -21 8 -5 0 11 -4 34 -8 50 -7
27 -8 27 -8 5z"/>
<path d="M3155 4920 c3 -5 8 -10 11 -10 2 0 4 5 4 10 0 6 -5 10 -11 10 -5 0
-7 -4 -4 -10z"/>
<path d="M3431 4894 c0 -11 3 -14 6 -6 3 7 2 16 -1 19 -3 4 -6 -2 -5 -13z"/>
<path d="M3512 4750 c0 -14 2 -19 5 -12 2 6 2 18 0 25 -3 6 -5 1 -5 -13z"/>
<path d="M5340 5145 c0 -8 2 -15 4 -15 2 0 6 7 10 15 3 8 1 15 -4 15 -6 0 -10
-7 -10 -15z"/>
<path d="M5242 5080 c0 -14 2 -19 5 -12 2 6 2 18 0 25 -3 6 -5 1 -5 -13z"/>
<path d="M5260 5070 c0 -5 5 -10 10 -10 6 0 10 5 10 10 0 6 -4 10 -10 10 -5 0
-10 -4 -10 -10z"/>
<path d="M5400 5061 c0 -6 4 -13 10 -16 6 -3 7 1 4 9 -7 18 -14 21 -14 7z"/>
<path d="M5160 4650 c0 -5 5 -10 11 -10 5 0 7 5 4 10 -3 6 -8 10 -11 10 -2 0
-4 -4 -4 -10z"/>
<path d="M5080 4508 c0 -9 5 -20 10 -23 13 -8 13 5 0 25 -8 13 -10 13 -10 -2z"/>
<path d="M5071 4452 c5 -20 9 -54 9 -74 0 -21 4 -38 9 -38 5 0 9 30 8 67 0 41
-3 59 -8 47 -7 -18 -8 -17 -8 3 -1 12 -5 24 -10 27 -5 4 -5 -10 0 -32z"/>
<path d="M5080 4290 c0 -16 5 -30 10 -30 6 0 10 14 10 30 0 17 -4 30 -10 30
-5 0 -10 -13 -10 -30z"/>
<path d="M5085 4090 c-3 -5 -1 -10 4 -10 6 0 11 5 11 10 0 6 -2 10 -4 10 -3 0
-8 -4 -11 -10z"/>
<path d="M3016 4551 c-9 -14 5 -71 17 -71 6 0 8 -21 4 -54 -4 -39 -1 -60 9
-73 14 -17 14 -17 28 0 10 13 13 34 9 73 -4 37 -2 54 6 54 6 0 11 17 11 40 0
40 0 40 -39 40 -22 0 -42 -4 -45 -9z"/>
<path d="M3100 3920 l0 -80 40 0 40 0 0 80 0 80 -40 0 -40 0 0 -80z"/>
<path d="M2846 3881 c-4 -7 -5 -15 -2 -18 9 -9 19 4 14 18 -4 11 -6 11 -12 0z"/>
<path d="M2853 3595 c0 -22 2 -30 4 -17 2 12 2 30 0 40 -3 9 -5 -1 -4 -23z"/>
<path d="M2832 3555 c0 -16 4 -41 8 -55 7 -23 8 -22 8 10 0 19 -3 44 -8 55 -7
17 -9 15 -8 -10z"/>
<path d="M3741 4054 c0 -11 3 -14 6 -6 3 7 2 16 -1 19 -3 4 -6 -2 -5 -13z"/>
<path d="M4852 3848 c-7 -7 -12 -19 -11 -27 0 -12 3 -10 10 4 6 14 7 8 3 -22
-5 -35 -3 -43 10 -43 9 0 16 8 16 19 0 11 6 22 13 25 10 5 10 7 0 12 -7 3 -13
14 -13 25 0 22 -11 24 -28 7z"/>
<path d="M3340 3480 c0 -11 5 -20 10 -20 6 0 10 9 10 20 0 11 -4 20 -10 20 -5
0 -10 -9 -10 -20z"/>
<path d="M3288 3433 c7 -3 16 -2 19 1 4 3 -2 6 -13 5 -11 0 -14 -3 -6 -6z"/>
<path d="M3909 3660 c0 -5 0 -38 -1 -72 l0 -63 401 -3 401 -2 0 75 0 75 -400
0 c-260 0 -400 -4 -401 -10z"/>
<path d="M6860 3335 c0 -8 5 -15 10 -15 6 0 10 7 10 15 0 8 -4 15 -10 15 -5 0
-10 -7 -10 -15z"/>
<path d="M6960 3328 c0 -9 -4 -18 -9 -20 -4 -1 -5 -12 0 -23 7 -18 8 -18 8 -2
1 10 6 15 11 12 13 -8 13 15 0 35 -8 13 -10 13 -10 -2z"/>
<path d="M6022 3305 c0 -16 2 -22 5 -12 2 9 2 23 0 30 -3 6 -5 -1 -5 -18z"/>
<path d="M1686 3312 c-2 -4 -1 -14 4 -22 7 -11 9 -9 7 8 -1 24 -3 26 -11 14z"/>
<path d="M1711 3255 c0 -11 6 -28 14 -39 13 -18 14 -18 12 3 -1 11 -4 21 -8
21 -4 0 -10 8 -12 18 -4 14 -5 14 -6 -3z"/>
<path d="M3306 3216 c-15 -13 -26 -26 -26 -30 0 -12 28 -6 40 9 10 12 10 15
-1 15 -8 0 -5 6 7 15 10 8 16 15 12 15 -4 0 -18 -11 -32 -24z"/>
<path d="M6955 3209 c-9 -17 -15 -33 -13 -35 3 -2 12 12 21 31 21 43 13 47 -8
4z"/>
<path d="M1747 3173 c3 -7 6 -13 8 -13 2 0 5 6 8 13 3 8 -1 14 -8 14 -7 0 -11
-6 -8 -14z"/>
<path d="M3225 3160 c-8 -13 5 -13 25 0 13 8 13 10 -2 10 -9 0 -20 -4 -23 -10z"/>
</g>
</svg>
