<?xml version="1.0" standalone="no"?>
<!DOCTYPE svg PUBLIC "-//W3C//DTD SVG 20010904//EN"
 "http://www.w3.org/TR/2001/REC-SVG-20010904/DTD/svg10.dtd">
<svg version="1.0" xmlns="http://www.w3.org/2000/svg"
 width="512.000000pt" height="512.000000pt" viewBox="0 0 512.000000 512.000000"
 preserveAspectRatio="xMidYMid meet">
<metadata>
Created by potrace 1.14, written by Peter Selinger 2001-2017
</metadata>
<g transform="translate(0.000000,512.000000) scale(0.100000,-0.100000)"
fill="#000000" stroke="none">
<path d="M2487 5073 c-30 -27 -81 -78 -113 -114 -52 -59 -64 -68 -104 -73
-310 -46 -564 -124 -815 -251 -242 -122 -429 -258 -625 -455 -197 -196 -333
-383 -455 -625 -175 -346 -265 -720 -265 -1105 0 -554 187 -1088 538 -1535 31
-38 116 -131 191 -205 206 -204 386 -333 646 -461 227 -112 461 -185 715 -225
163 -26 557 -26 720 0 254 40 488 113 715 225 265 131 442 258 655 471 214
214 343 393 470 655 168 344 250 699 250 1075 0 551 -182 1074 -529 1520 -74
96 -265 291 -358 368 l-62 50 34 21 c19 11 35 27 35 35 0 8 -24 26 -54 39 -76
35 -132 90 -172 169 -19 38 -41 68 -49 68 -8 0 -30 -30 -49 -68 l-34 -68 -125
61 c-236 117 -502 199 -759 234 l-76 11 -114 115 c-75 77 -120 115 -135 115
-12 0 -46 -21 -76 -47z m-217 -952 c0 -68 4 -93 16 -105 13 -14 52 -16 271
-16 311 0 293 -7 293 122 l0 88 160 0 159 0 31 -97 c167 -535 182 -1206 40
-1764 -34 -133 -81 -272 -98 -291 -14 -17 -55 -18 -581 -18 -311 0 -571 4
-578 8 -14 9 -51 110 -87 237 -125 441 -149 969 -66 1457 20 114 64 299 97
405 l16 52 76 4 c42 1 115 4 164 5 l87 2 0 -89z m-1127 -295 c35 -75 94 -136
166 -171 81 -38 80 -54 -9 -101 -79 -41 -108 -71 -151 -155 -39 -78 -60 -79
-93 -6 -33 76 -79 123 -158 163 -87 44 -89 60 -7 99 75 36 121 81 155 148 49
96 62 99 97 23z m3016 -294 c33 -66 86 -118 149 -146 59 -27 55 -48 -17 -86
-71 -38 -93 -61 -130 -131 -36 -70 -57 -71 -90 -5 -31 62 -75 106 -143 143
-29 15 -53 34 -53 42 0 8 24 27 54 42 72 37 107 72 142 142 16 31 36 57 44 57
8 0 28 -26 44 -58z m-1198 -1978 c47 -120 92 -221 100 -225 8 -4 43 -21 79
-39 36 -17 78 -42 95 -55 l29 -24 -41 -78 c-36 -68 -69 -161 -87 -243 -5 -25
-6 -25 -123 -26 -101 0 -129 -4 -198 -28 -87 -30 -139 -57 -209 -111 l-46 -35
-51 40 c-116 92 -280 144 -433 138 -86 -3 -87 -3 -93 22 -19 84 -39 145 -75
218 l-41 83 24 26 c33 35 97 78 140 93 36 13 38 16 120 229 l84 216 45 5 c25
3 169 7 321 8 l275 4 85 -218z"/>
<path d="M2436 3804 c-257 -62 -429 -335 -375 -596 29 -141 148 -292 280 -356
136 -66 302 -66 438 0 132 64 251 215 280 356 75 363 -260 684 -623 596z m266
-204 c59 -30 115 -85 146 -145 24 -44 27 -61 27 -145 0 -83 -3 -101 -27 -145
-35 -68 -102 -128 -172 -154 -72 -27 -81 -26 -144 5 -194 97 -242 358 -93 517
89 96 168 116 263 67z"/>
</g>
</svg>
